<?xml version="1.0" standalone="no"?>
<!DOCTYPE svg PUBLIC "-//W3C//DTD SVG 20010904//EN"
 "http://www.w3.org/TR/2001/REC-SVG-20010904/DTD/svg10.dtd">
<svg version="1.0" xmlns="http://www.w3.org/2000/svg"
 width="400.000000pt" height="400.000000pt" viewBox="0 0 400.000000 400.000000"
 preserveAspectRatio="xMidYMid meet">

<g transform="translate(0.000000,400.000000) scale(0.100000,-0.100000)"
fill="#000000" stroke="none">
<path d="M0 3829 l0 -171 39 31 c42 33 67 43 35 14 -22 -21 -29 -49 -14 -58 5
-3 10 3 10 14 0 11 4 23 10 26 6 4 7 -1 3 -11 -5 -13 -3 -15 8 -9 8 5 5 -1 -5
-13 -11 -12 -29 -22 -40 -22 -14 0 -7 -7 21 -20 30 -13 41 -23 37 -34 -5 -13
-11 -13 -46 5 -25 13 -44 17 -50 11 -5 -5 -7 -103 -5 -228 6 -354 35 -418 147
-324 26 22 53 40 60 40 7 0 66 -19 132 -41 99 -35 119 -46 124 -65 4 -13 10
-24 16 -24 5 0 7 -4 4 -8 -10 -17 10 -65 31 -73 15 -5 34 2 75 32 l55 39 88
-30 c81 -27 120 -54 109 -72 -3 -5 0 -8 5 -8 20 0 26 -3 38 -19 10 -13 12 -13
13 -2 0 8 3 11 7 8 3 -4 -2 -16 -12 -27 -18 -20 -18 -20 25 -5 50 17 72 33 65
46 -3 4 10 2 28 -6 19 -8 37 -11 41 -8 9 10 7 -20 -3 -36 -5 -7 -14 -10 -20
-7 -6 4 -27 -2 -46 -14 -19 -12 -39 -19 -44 -16 -4 3 -37 -6 -71 -20 -61 -25
-63 -25 -76 -6 -32 46 -124 34 -191 -23 -23 -19 -50 -35 -60 -35 -22 0 -121
-98 -120 -120 0 -8 -10 -51 -23 -95 -15 -53 -23 -110 -24 -168 -1 -78 -2 -85
-13 -60 l-12 28 -1 -30 c-3 -62 -42 -219 -53 -210 -4 3 -5 2 -3 -1 2 -3 -9
-45 -26 -92 -19 -54 -30 -107 -30 -140 0 -37 -5 -55 -15 -59 -8 -3 -12 -11 -9
-18 2 -7 -7 -36 -20 -64 -14 -28 -34 -93 -45 -144 -11 -50 -22 -100 -25 -111
-4 -12 -2 -16 5 -12 7 5 11 -4 11 -23 0 -17 -4 -31 -8 -31 -11 0 -32 -52 -57
-135 -17 -56 -40 -103 -28 -56 4 17 1 21 -21 21 -19 0 -26 -5 -26 -19 0 -21
25 -45 38 -37 9 5 6 -35 -5 -64 -3 -8 -6 -24 -5 -35 1 -16 0 -17 -4 -3 -3 10
-10 18 -15 18 -17 0 -9 -40 12 -61 19 -19 20 -28 14 -86 -5 -50 -3 -69 9 -88
22 -34 20 -55 -3 -26 -18 24 -19 24 -29 4 -8 -14 -8 -31 -1 -57 5 -20 7 -40 4
-45 -3 -5 -1 -12 5 -16 5 -3 10 -15 10 -26 0 -10 4 -19 9 -19 5 0 13 -18 19
-40 5 -23 6 -40 1 -40 -5 0 -9 8 -9 18 0 9 -5 24 -10 32 -8 12 -10 8 -9 -15 0
-29 -3 -55 -17 -124 -4 -19 0 -69 9 -115 9 -44 18 -120 20 -167 3 -47 10 -96
16 -107 l12 -22 1113 0 1114 0 -11 31 c-11 27 -10 32 7 45 30 21 42 17 15 -6
-16 -13 -20 -22 -13 -27 6 -5 13 -16 17 -25 6 -16 23 -18 170 -18 l163 0 1 69
2 69 -48 40 c-26 22 -79 61 -119 86 -78 51 -83 61 -57 123 19 44 19 52 1 28
-13 -18 -18 -16 -83 46 -38 35 -102 87 -143 113 -89 58 -134 98 -163 146 -11
19 -31 45 -44 57 -13 12 -23 27 -23 32 0 17 61 81 77 81 9 0 13 6 9 15 -3 9 4
21 20 31 13 9 22 19 20 22 -11 10 16 42 34 42 12 0 20 7 20 18 0 9 9 23 21 30
18 11 24 11 41 -5 23 -21 62 -93 51 -93 -5 0 -3 -4 2 -8 9 -6 33 -61 38 -87 2
-5 7 -16 11 -24 7 -10 6 -12 -4 -6 -10 6 -12 2 -7 -16 4 -13 7 -28 7 -32 0 -5
5 -5 10 -2 10 6 14 -7 11 -34 -2 -7 2 -10 8 -6 6 3 11 0 11 -9 0 -8 6 -16 13
-19 9 -3 9 -8 -2 -21 -16 -18 -23 -59 -10 -50 4 2 10 0 14 -6 3 -5 17 -7 31
-4 16 4 31 1 43 -10 11 -10 25 -14 36 -10 15 6 17 4 12 -11 -6 -15 -5 -16 8
-5 16 13 21 1 6 -15 -4 -6 -13 -26 -19 -45 -13 -39 -16 -43 54 53 33 45 59 57
80 38 5 -4 30 -16 57 -26 26 -10 47 -21 47 -26 0 -5 6 -6 14 -3 8 3 17 0 21
-5 10 -17 25 -3 25 23 0 16 -5 23 -17 22 -10 0 -19 9 -23 24 -4 17 -8 21 -14
12 -14 -24 -26 -1 -26 53 0 46 -3 55 -21 60 -15 5 -18 10 -9 15 8 5 7 9 -4 13
-22 9 -18 67 4 68 10 0 11 2 3 6 -7 2 -13 9 -13 14 0 4 6 6 13 3 7 -2 24 0 38
5 14 6 18 10 9 11 -11 1 -9 4 5 11 16 7 13 8 -14 4 -29 -4 -32 -3 -26 13 4 9
10 25 12 35 3 9 10 17 15 17 5 0 7 4 3 9 -3 6 4 8 16 6 14 -3 19 0 16 9 -3 8
3 12 17 12 14 -1 21 5 20 17 -1 9 2 17 7 17 5 0 8 6 6 13 -3 17 53 12 72 -7
13 -14 13 -16 -2 -22 -9 -3 -15 -10 -12 -14 3 -5 -2 -16 -11 -24 -8 -9 -13
-16 -10 -16 3 0 -3 -17 -14 -37 -22 -41 -21 -47 4 -37 13 5 14 9 5 21 -10 11
-9 13 1 11 8 -2 19 7 25 20 5 12 13 22 18 22 4 0 5 5 2 10 -3 6 3 10 14 10 14
0 19 -5 15 -15 -4 -8 -10 -15 -14 -15 -5 0 -7 -9 -5 -20 2 -11 0 -20 -5 -20
-10 0 -8 -20 4 -39 7 -11 5 -13 -6 -8 -12 4 -14 1 -11 -14 4 -15 2 -18 -13
-12 -17 6 -17 5 -5 -10 9 -12 10 -17 2 -17 -7 0 -9 -5 -6 -10 4 -6 11 -8 16
-4 16 10 40 76 33 96 -3 10 -1 18 5 18 5 0 8 9 6 20 -2 11 0 22 6 25 15 10 10
35 -7 35 -8 0 -13 4 -10 9 3 5 15 7 26 4 17 -5 24 6 20 30 -2 6 52 143 69 175
10 21 19 41 19 45 1 4 13 33 27 63 15 31 27 64 28 75 1 10 5 19 9 19 5 0 21
27 37 60 16 33 27 60 24 60 -4 0 4 9 17 20 13 11 20 20 15 20 -4 0 -1 7 6 16
7 9 14 21 15 28 5 26 35 86 44 86 11 0 1 -62 -12 -71 -5 -3 -8 -10 -7 -15 1
-5 0 -12 -1 -16 -1 -5 -3 -11 -5 -15 -1 -5 -7 -21 -13 -36 -7 -16 -12 -35 -12
-43 0 -8 -4 -14 -9 -14 -16 0 -24 -59 -10 -78 11 -14 11 -15 -1 -4 -19 16 -35
15 -21 -2 9 -11 8 -15 -4 -20 -9 -3 -14 -10 -10 -15 3 -5 1 -12 -5 -16 -6 -3
-19 -24 -30 -45 -17 -33 -17 -39 -4 -44 8 -3 13 -2 10 3 -3 5 1 11 9 15 11 4
14 -1 13 -19 -2 -20 -7 -24 -23 -20 -19 6 -19 5 -2 -5 15 -9 23 -8 40 7 21 18
21 18 7 -1 -13 -18 -13 -19 1 -14 9 4 16 1 16 -8 0 -7 -4 -11 -8 -9 -13 8 -31
-23 -27 -48 2 -17 -5 -31 -22 -45 -20 -17 -23 -23 -13 -33 11 -10 16 -9 27 6
8 11 12 23 10 27 -7 11 -3 10 46 -7 53 -19 60 -19 34 -1 -16 11 -20 22 -16 47
3 20 0 34 -9 40 -9 6 -10 9 -2 9 7 0 17 -8 22 -17 6 -10 11 -12 11 -5 0 6 12
12 28 12 20 0 23 3 12 10 -12 8 -12 10 2 15 10 4 20 15 23 26 4 11 11 16 18
12 7 -4 6 1 -2 10 -9 11 -10 17 -2 17 6 0 11 7 11 17 0 9 17 33 38 53 22 20
42 49 46 64 5 21 10 25 20 17 7 -6 15 -9 17 -6 3 2 5 -5 6 -15 1 -11 -3 -20
-8 -20 -6 0 -7 -5 -4 -10 3 -6 -1 -13 -10 -16 -27 -11 -65 -89 -94 -194 -16
-55 -27 -100 -24 -100 5 0 27 53 25 62 -1 3 9 17 23 30 19 18 21 26 12 38 -9
12 -9 13 3 3 21 -19 30 -16 30 10 0 16 3 18 9 8 6 -10 10 -10 16 -1 4 6 5 14
2 17 -3 2 -1 18 5 34 8 24 13 27 28 19 17 -9 16 -16 -26 -106 -25 -53 -42 -99
-38 -103 4 -3 9 0 11 7 3 6 10 9 15 6 6 -4 8 -2 5 4 -12 18 4 44 24 39 12 -3
16 0 12 9 -3 8 -10 11 -16 7 -6 -3 -7 -1 -3 6 6 9 11 9 21 1 9 -8 15 -6 20 7
5 10 8 21 7 24 -1 4 8 9 18 12 11 3 18 1 14 -4 -11 -19 12 -8 45 21 28 25 54
34 87 29 4 0 10 4 14 10 3 7 30 15 58 20 43 7 52 6 52 -7 0 -9 -3 -12 -7 -9
-3 4 -14 0 -23 -8 -9 -8 -33 -16 -53 -17 -20 -2 -37 -6 -37 -10 0 -3 -15 -11
-34 -18 -18 -6 -43 -21 -55 -34 -18 -19 -20 -28 -12 -49 6 -15 14 -27 17 -27
4 0 4 3 1 7 -17 16 27 43 70 43 41 0 43 -1 33 -20 -6 -12 -21 -20 -35 -20 -30
0 -33 -16 -5 -23 11 -3 18 -1 15 3 -3 5 5 10 17 12 17 2 22 10 23 32 0 31 18
45 31 25 5 -8 3 -10 -7 -4 -11 6 -12 5 -1 -6 6 -7 12 -17 12 -22 0 -4 -6 -5
-12 -2 -7 4 -4 -1 6 -9 17 -14 18 -16 3 -16 -9 0 -17 -7 -18 -15 -4 -64 -3
-67 29 -81 32 -13 32 -13 32 15 0 27 18 40 53 41 14 0 7 -38 -9 -44 -9 -4 -14
-9 -11 -13 4 -3 14 0 23 8 14 11 19 10 36 -14 11 -15 26 -27 34 -27 21 0 65
31 58 41 -3 5 2 9 10 9 9 0 16 8 16 18 0 10 5 23 12 30 20 20 4 21 -39 2 -23
-10 -44 -16 -47 -12 -16 15 -1 34 44 57 49 25 50 26 50 71 0 41 -2 45 -15 34
-24 -20 -27 -6 -5 18 15 16 20 35 20 77 0 65 -2 65 -94 31 -63 -24 -87 -25
-63 -2 27 26 68 46 94 46 62 1 79 49 44 125 -27 61 -80 101 -148 115 -32 6
-105 26 -163 45 -132 41 -321 64 -362 42 l-27 -14 43 -20 c42 -21 56 -47 29
-57 -7 -3 -13 1 -13 9 0 8 -3 15 -7 15 -5 0 -22 14 -40 30 -18 17 -39 30 -47
30 -8 0 -17 8 -20 18 -4 11 -17 18 -38 19 -40 3 -98 60 -98 98 0 32 31 96 43
88 5 -3 3 -9 -4 -14 -10 -6 -11 -9 -1 -9 6 0 12 -9 12 -19 0 -11 4 -23 10 -26
5 -3 10 3 10 13 0 11 7 23 16 26 8 3 12 11 9 16 -10 16 -13 80 -5 80 13 0 19
-42 19 -123 0 -57 4 -81 15 -93 12 -11 16 -12 16 -2 0 10 3 9 10 -2 7 -11 10
-11 10 -2 0 7 4 11 9 8 5 -3 11 3 14 14 6 24 55 38 69 19 8 -12 9 -11 5 1 -4
16 -26 18 -97 7 -25 -3 -36 -3 -26 2 16 6 17 8 4 13 -12 5 -14 15 -7 55 4 26
12 62 17 78 5 17 7 35 5 41 -2 6 7 19 19 30 l23 19 -19 -23 c-11 -12 -17 -25
-14 -28 7 -7 54 54 62 81 9 29 -68 279 -96 313 -8 9 -8 16 0 24 9 9 12 8 12
-4 0 -8 7 -21 15 -28 12 -10 12 -8 -1 19 -12 23 -13 35 -4 53 10 21 10 21 -3
5 -14 -16 -15 -16 -19 6 -4 20 -1 23 19 19 32 -6 29 2 -18 47 -35 35 -39 43
-29 61 9 17 6 28 -19 64 -17 24 -36 46 -43 48 -7 3 -13 19 -14 37 -1 18 -9 40
-18 50 -16 15 -16 14 -7 -11 7 -19 7 -28 0 -28 -6 0 -7 -5 -3 -12 4 -7 3 -8
-5 -4 -6 4 -9 11 -6 16 5 8 -16 32 -59 68 -8 6 -21 12 -28 12 -7 1 -29 8 -49
18 -44 21 -208 24 -232 4 -8 -7 -36 -13 -63 -15 -47 -2 -49 -1 -46 23 1 13 6
28 10 31 4 4 115 23 247 43 132 20 249 38 260 41 18 4 25 -6 45 -61 l25 -65
40 3 40 3 9 70 c5 39 9 71 10 72 1 2 63 12 137 23 74 11 224 33 333 50 110 16
208 30 217 30 12 0 19 -10 22 -32 2 -18 5 148 5 368 l2 401 -77 -18 c-43 -11
-90 -21 -104 -23 -25 -5 -90 -20 -324 -76 -66 -16 -196 -47 -290 -69 -93 -22
-312 -75 -485 -117 -509 -122 -554 -133 -561 -128 -3 2 -4 15 -1 29 3 17 -1
30 -12 38 -21 15 -60 4 1044 281 l815 205 -1380 0 -1380 1 53 -35 c28 -20 52
-40 52 -45 0 -6 7 -10 15 -10 8 0 15 -4 15 -10 0 -9 -14 -14 -32 -11 -10 1
-10 -11 1 -28 6 -10 0 -21 -20 -38 -16 -14 -35 -26 -43 -27 -8 -1 -21 -8 -30
-15 -8 -7 -21 -9 -27 -5 -8 4 -9 3 -5 -4 14 -24 -17 -10 -99 43 -27 18 -104
67 -170 109 l-120 76 -417 0 -418 0 0 -171z m160 -113 c0 -2 -7 -7 -16 -10 -8
-3 -12 -2 -9 4 6 10 25 14 25 6z m1545 -115 c-3 -5 5 -11 17 -13 26 -3 32 -31
8 -36 -8 -1 -28 9 -43 22 l-28 24 23 5 c13 2 24 5 26 6 2 0 1 -3 -3 -8z m-101
-77 c9 -3 16 -10 16 -15 0 -19 34 -48 45 -39 13 11 104 8 123 -4 7 -4 12 -2
12 4 0 8 6 8 20 0 11 -6 17 -16 14 -25 -4 -8 -10 -13 -15 -10 -4 3 -24 -1 -44
-9 -19 -8 -42 -13 -50 -10 -9 4 -15 0 -15 -10 0 -9 -7 -16 -15 -16 -9 0 -15 9
-15 22 0 12 -3 19 -6 15 -5 -5 -24 8 -58 38 -6 6 -26 17 -43 24 -37 15 -42 27
-15 34 27 7 29 7 46 1z m-889 -83 c3 -5 1 -12 -4 -15 -5 -3 -11 1 -15 9 -6 16
9 21 19 6z m-35 -5 c0 -3 -4 -8 -10 -11 -5 -3 -10 -1 -10 4 0 6 5 11 10 11 6
0 10 -2 10 -4z m815 -5 l-40 -7 48 -8 c58 -9 55 -15 -10 -27 -26 -5 -54 -17
-60 -26 -20 -26 -27 -7 -14 37 l12 40 52 -1 c52 -2 52 -2 12 -8z m-92 -51 c-3
-11 -14 -20 -25 -20 -16 0 -17 3 -8 20 6 11 17 20 24 20 9 0 12 -7 9 -20z
m-779 -5 c6 -17 4 -18 -18 -9 -20 8 -21 24 -2 24 8 0 16 -7 20 -15z m1542 -6
c23 -19 16 -29 -16 -27 -16 1 -30 5 -30 9 0 4 -3 14 -6 23 -4 11 0 14 16 11
12 -2 28 -9 36 -16z m-469 -15 c-3 -3 -12 -4 -19 -1 -8 3 -5 6 6 6 11 1 17 -2
13 -5z m-1127 -14 c0 -5 -4 -10 -10 -10 -5 0 -10 5 -10 10 0 6 5 10 10 10 6 0
10 -4 10 -10z m1280 0 c0 -5 -7 -7 -15 -4 -8 4 -15 8 -15 10 0 2 7 4 15 4 8 0
15 -4 15 -10z m-434 -19 c-11 -17 20 -32 47 -22 14 5 33 8 43 5 22 -6 47 -52
37 -68 -5 -8 -3 -8 8 0 8 6 24 14 36 16 16 4 20 2 16 -9 -3 -7 -8 -12 -11 -9
-2 3 -12 -9 -21 -27 -9 -17 -22 -31 -30 -29 -7 1 -10 -2 -6 -8 3 -5 2 -10 -3
-10 -5 0 -14 -11 -20 -25 -6 -13 -22 -27 -36 -31 -35 -8 -58 -48 -54 -92 2
-28 -1 -37 -14 -40 -13 -2 -18 3 -18 17 0 12 -4 21 -10 21 -5 0 -10 7 -10 15
0 10 -7 15 -17 13 -11 -2 -17 2 -15 11 2 8 -3 11 -13 8 -19 -8 -20 8 -2 25 16
15 10 51 -7 41 -6 -4 -3 6 8 21 16 25 16 28 2 23 -17 -7 -22 8 -6 18 6 3 7 17
4 31 -4 14 -2 25 5 25 6 1 16 2 23 3 19 2 20 24 1 29 -10 3 2 3 27 0 25 -3 50
-9 55 -14 13 -10 100 -20 89 -10 -5 4 -27 13 -49 19 -51 14 -80 35 -71 50 4 7
9 12 12 12 3 0 3 -4 0 -9z m568 -36 c-4 -8 -8 -15 -10 -15 -2 0 -4 7 -4 15 0
8 4 15 10 15 5 0 7 -7 4 -15z m210 -40 c-4 -8 -8 -15 -10 -15 -2 0 -4 7 -4 15
0 8 4 15 10 15 5 0 7 -7 4 -15z m-433 -22 c13 -16 12 -17 -3 -4 -17 13 -22 21
-14 21 2 0 10 -8 17 -17z m-37 -65 c21 -30 20 -35 -6 -49 -20 -11 -22 -11 -10
3 8 11 9 18 3 22 -6 4 -18 -6 -28 -21 -9 -15 -18 -30 -20 -32 -2 -2 -11 3 -20
11 -10 8 -30 18 -44 22 -69 16 -25 62 62 65 39 1 50 -3 63 -21z m105 3 c7 -5
10 -14 7 -20 -4 -6 -2 -11 4 -11 6 0 8 -4 5 -10 -3 -5 -1 -10 4 -10 6 0 11 -4
11 -9 0 -4 -12 -7 -27 -5 -16 2 -22 1 -15 -2 16 -7 15 -42 -2 -73 -13 -23 -13
-23 -19 17 -4 23 -14 42 -23 46 -10 4 -14 13 -11 26 3 11 1 20 -4 20 -20 0 -7
19 19 28 35 13 35 13 51 3z m-909 -5 c0 -3 -4 -8 -10 -11 -5 -3 -10 -1 -10 4
0 6 5 11 10 11 6 0 10 -2 10 -4z m-42 -35 c-7 -11 -16 -17 -22 -14 -5 3 -1 12
9 20 25 18 27 17 13 -6z m-32 -36 c1 -8 -4 -11 -12 -8 -8 3 -14 -1 -14 -10 0
-8 -8 -21 -17 -28 -16 -13 -17 -12 -5 3 10 12 10 17 1 20 -8 3 -4 12 11 26 24
22 32 22 36 -3z m724 -39 c19 -1 45 -7 57 -14 12 -7 26 -12 30 -11 33 6 40 -5
9 -12 -25 -6 -51 -6 -70 0 -17 6 -44 12 -61 15 -16 3 -41 8 -55 11 l-25 6 23
-13 c12 -8 19 -18 15 -23 -4 -4 -3 -5 3 -2 6 4 26 0 43 -9 17 -8 57 -18 88
-21 41 -5 52 -8 38 -14 -11 -4 -34 -8 -52 -8 -25 -1 -30 -4 -26 -20 3 -13 -2
-20 -19 -24 -34 -10 -50 -8 -43 3 3 6 1 10 -5 10 -7 0 -10 7 -6 15 3 8 2 14
-2 14 -18 -3 -35 2 -29 8 4 3 -1 11 -10 18 -8 6 -16 26 -17 43 -1 29 -16 48
-16 20 0 -6 -3 -9 -6 -5 -16 15 10 25 54 20 26 -3 63 -6 82 -7z m-210 -51 c0
-23 -3 -27 -10 -15 -8 12 -10 12 -10 1 0 -8 -3 -11 -6 -8 -4 4 -1 13 6 22 10
12 10 15 -4 15 -9 0 -16 4 -16 9 0 6 9 9 20 8 15 -1 20 -8 20 -32z m-453 -42
c-3 -10 -5 -4 -5 12 0 17 2 24 5 18 2 -7 2 -21 0 -30z m501 -16 c2 -10 -3 -17
-12 -17 -9 0 -14 8 -13 20 2 24 21 21 25 -3z m265 -17 c-3 -12 -12 -20 -21
-18 -25 5 -25 26 0 31 13 2 24 5 25 6 0 0 -1 -8 -4 -19z m802 -47 c30 -45 30
-47 5 -81 -10 -15 -24 -49 -30 -77 -6 -27 -15 -54 -20 -60 -10 -12 -18 -46
-19 -81 -1 -11 -7 -29 -15 -40 -14 -18 -17 -17 -65 32 -59 59 -155 111 -223
120 -46 6 -48 8 -48 38 0 18 5 37 10 42 6 6 13 24 16 40 9 55 14 61 30 40 12
-17 14 -18 14 -3 0 9 3 18 8 18 4 1 19 3 35 5 32 3 225 34 247 38 8 2 18 4 22
5 4 0 19 -16 33 -36z m-1500 7 c3 -5 1 -10 -4 -10 -6 0 -11 5 -11 10 0 6 2 10
4 10 3 0 8 -4 11 -10z m646 -31 c12 -7 12 -10 -1 -23 -25 -24 -90 -20 -90 6 0
5 4 6 10 3 5 -3 7 0 4 8 -4 11 3 15 29 15 19 0 40 -4 48 -9z m-938 -154 c-10
-6 -33 -15 -52 -18 -30 -6 -32 -5 -20 9 17 21 48 32 72 26 17 -4 17 -5 0 -17z
m682 -135 c3 -5 1 -10 -4 -10 -6 0 -11 5 -11 10 0 6 2 10 4 10 3 0 8 -4 11
-10z m1385 -39 c14 -9 28 -20 32 -25 9 -14 -10 -46 -27 -46 -8 0 -18 -7 -23
-15 -7 -14 -12 -14 -43 -1 -39 16 -60 10 -116 -34 -24 -19 -53 -27 -53 -14 0
10 23 48 38 63 9 9 40 17 78 19 l64 4 -1 37 c0 20 -3 30 -6 24 -2 -7 -9 -13
-15 -13 -7 0 -6 5 2 14 12 16 29 12 70 -13z m374 -217 c18 -17 17 -16 20 -99
1 -33 5 -65 9 -72 4 -6 3 -14 -2 -17 -5 -3 -7 -15 -4 -26 3 -11 0 -26 -6 -33
-6 -8 -8 -17 -4 -20 3 -4 2 -7 -3 -7 -5 0 -11 -12 -12 -27 -1 -16 -9 -34 -19
-40 -20 -15 -53 -106 -48 -133 2 -11 -1 -22 -6 -25 -5 -4 -7 -11 -3 -16 10
-16 12 -59 3 -65 -4 -2 -6 -11 -3 -18 3 -8 -14 -30 -41 -52 -26 -22 -63 -53
-83 -70 -21 -17 -48 -35 -61 -39 -22 -7 -23 -5 -19 29 3 30 1 35 -11 30 -90
-36 -101 -38 -115 -24 -31 34 -40 117 -11 106 17 -6 25 15 25 67 0 49 -43 120
-90 149 -17 10 -38 31 -48 48 -11 16 -23 27 -28 22 -4 -4 -2 2 6 12 9 11 10
17 3 13 -8 -5 -15 5 -22 30 -22 83 -23 112 -7 167 17 58 16 57 91 70 17 2 38
8 48 11 12 5 17 2 17 -9 0 -22 23 -20 44 3 21 24 95 35 116 17 26 -22 50 -27
56 -11 4 10 21 15 53 16 25 0 62 7 81 14 47 18 56 18 74 -1z m122 -181 c-5
-18 -17 -40 -27 -49 -15 -14 -19 -13 -42 10 -15 14 -24 27 -22 27 3 1 11 2 18
3 6 1 12 15 12 31 0 18 5 29 12 28 6 -2 18 13 25 33 l12 35 11 -43 c7 -28 7
-54 1 -75z m44 -10 c-11 -17 -11 -17 -6 0 3 10 7 28 7 40 2 22 2 22 6 0 2 -12
-1 -30 -7 -40z m-2896 -84 c4 -8 0 -5 -8 5 -9 11 -16 31 -15 45 1 24 2 24 8
-5 4 -17 11 -37 15 -45z m-37 -81 c-3 -7 -5 -2 -5 12 0 14 2 19 5 13 2 -7 2
-19 0 -25z m2752 -235 c-1 -5 0 -10 1 -13 8 -21 6 -39 -4 -43 -12 -5 -69 -110
-72 -135 -2 -8 -9 -21 -18 -30 -8 -10 -15 -21 -15 -27 -1 -5 -9 -19 -18 -30
-9 -11 -17 -21 -16 -22 5 -9 -11 -43 -20 -43 -6 0 -7 -3 -4 -6 9 -9 -11 -44
-26 -44 -7 0 -6 4 3 10 8 5 10 10 4 10 -17 0 -25 -12 -14 -25 6 -8 4 -18 -9
-31 -10 -11 -17 -27 -15 -37 1 -9 -1 -15 -6 -12 -4 3 -11 -2 -14 -11 -3 -8 -2
-13 2 -10 5 3 9 -1 9 -8 0 -7 -10 -12 -21 -12 -23 1 -31 -32 -11 -47 5 -4 -3
-5 -20 -1 -21 4 -26 3 -16 -4 10 -8 11 -14 1 -28 -11 -18 -11 -18 -5 1 4 15
-1 12 -19 -10 -14 -16 -25 -27 -26 -23 0 4 34 69 76 145 43 76 83 153 91 171
8 20 18 30 25 26 6 -4 8 -3 5 3 -8 13 6 45 81 191 29 56 57 102 62 102 6 0 9
-3 9 -7z m71 -31 c0 -5 -7 -17 -15 -28 -14 -18 -14 -17 -4 9 12 27 19 34 19
19z m590 -52 c8 -5 11 -10 5 -10 -5 0 -17 5 -25 10 -8 5 -10 10 -5 10 6 0 17
-5 25 -10z m-1397 -90 c-82 -94 -115 -106 -64 -24 36 58 87 108 101 99 5 -3
10 -1 10 4 0 6 7 11 16 11 9 0 -15 -35 -63 -90z m-729 -35 c3 -8 1 -15 -3 -15
-5 0 -11 7 -15 15 -3 8 -1 15 3 15 5 0 11 -7 15 -15z m2120 -149 c24 -12 25
-14 9 -21 -34 -15 -91 -15 -96 -1 -6 16 37 31 55 20 7 -4 8 -3 4 4 -9 15 -4
15 28 -2z m-249 -26 c-27 -12 -35 -12 -35 0 0 6 12 10 28 9 24 0 25 -1 7 -9z
m-2900 -105 c-14 -10 -15 -13 -4 -9 14 4 16 -2 13 -39 -2 -24 -10 -61 -17 -83
-14 -38 -14 -38 -20 60 -7 119 -3 136 26 107 21 -21 21 -21 2 -36z m2640 15
c-3 -5 -12 -10 -18 -10 -7 0 -6 4 3 10 19 12 23 12 15 0z m685 -16 c0 -8 -4
-14 -10 -14 -5 0 -9 -5 -7 -11 1 -6 -5 -13 -13 -15 -54 -12 -126 -21 -136 -17
-18 7 -12 34 10 43 85 31 156 38 156 14z m-764 -64 c0 -11 -4 -20 -8 -20 -10
0 -11 24 -1 33 9 9 9 10 9 -13z m-301 -70 c3 -6 -1 -7 -9 -4 -18 7 -21 14 -7
14 6 0 13 -4 16 -10z m1011 -7 c-2 -11 -13 -19 -27 -21 -19 -2 -21 -1 -9 7 8
6 11 11 5 11 -11 0 15 20 27 20 3 0 5 -8 4 -17z m-1036 -3 c11 -8 7 -9 -15 -4
-37 8 -45 14 -19 14 10 0 26 -5 34 -10z m-84 -45 c-3 -8 0 -15 6 -15 6 0 9 -3
5 -6 -3 -3 -14 -1 -24 5 -14 8 -14 10 -3 11 13 0 13 1 0 10 -13 8 -12 10 4 10
12 0 16 -5 12 -15z m1156 -17 c-9 -9 -15 -9 -24 0 -9 9 -7 12 12 12 19 0 21
-3 12 -12z m-2202 -138 c11 -21 11 -21 -33 -34 -9 -2 -12 5 -11 23 2 32 1 31
19 31 8 0 19 -9 25 -20z m-33 -702 c-3 -8 -6 -5 -6 6 -1 11 2 17 5 13 3 -3 4
-12 1 -19z"/>
<path d="M1433 3233 c-18 -2 -33 -9 -33 -14 0 -6 -4 -7 -10 -4 -5 3 -10 2 -10
-3 0 -16 30 -23 50 -12 11 6 23 10 27 9 20 -3 27 2 13 12 -12 8 -10 9 9 4 16
-5 21 -4 17 4 -4 6 -13 10 -19 9 -7 0 -27 -3 -44 -5z"/>
<path d="M1330 3220 c0 -5 7 -10 16 -10 8 0 12 5 9 10 -3 6 -10 10 -16 10 -5
0 -9 -4 -9 -10z"/>
<path d="M1595 3130 c3 -5 15 -10 26 -10 10 0 19 5 19 10 0 6 -12 10 -26 10
-14 0 -23 -4 -19 -10z"/>
<path d="M2840 2240 c-13 -8 -12 -10 3 -10 9 0 17 5 17 10 0 12 -1 12 -20 0z"/>
<path d="M2890 2230 c-14 -11 -20 -20 -15 -20 6 0 -1 -7 -15 -15 -29 -17 -100
-20 -100 -5 0 6 -10 14 -22 19 -17 6 -29 1 -55 -22 -31 -28 -43 -57 -25 -57 5
0 9 -7 9 -15 0 -8 -4 -15 -7 -15 -9 0 2 -49 16 -74 8 -13 17 -17 30 -12 11 4
54 10 97 12 43 3 97 11 119 18 33 12 39 12 34 1 -3 -9 0 -12 10 -8 15 5 16 9
18 58 1 25 -3 30 -34 37 -19 5 -42 10 -50 12 -8 3 -23 5 -32 5 -10 1 -18 5
-18 10 0 6 34 9 78 8 l77 -2 6 -35 6 -35 2 37 c1 38 -25 69 -69 83 -11 4 -17
12 -13 21 7 20 -17 17 -47 -6z m-73 -76 c-3 -3 -12 -4 -19 -1 -8 3 -5 6 6 6
11 1 17 -2 13 -5z m46 -26 c4 -10 8 -10 15 1 7 9 12 10 16 2 4 -6 11 -9 16 -6
5 3 11 1 15 -4 11 -19 -40 -34 -122 -38 -69 -2 -83 0 -83 12 0 14 17 20 48 16
6 -1 12 3 12 10 0 6 8 9 20 6 11 -3 20 -1 20 4 0 14 38 11 43 -3z"/>
<path d="M2745 2230 c3 -5 13 -10 21 -10 8 0 12 5 9 10 -3 6 -13 10 -21 10 -8
0 -12 -4 -9 -10z"/>
<path d="M2995 2015 c-16 -49 -16 -51 0 -31 15 19 20 46 10 46 -3 0 -8 -7 -10
-15z"/>
<path d="M2670 1972 c0 -6 10 -22 23 -36 20 -23 25 -24 57 -13 19 7 35 16 35
22 0 5 -16 13 -35 16 -19 4 -45 10 -57 14 -14 5 -23 3 -23 -3z"/>
<path d="M3815 2819 c-4 -6 -5 -12 -2 -15 2 -3 7 2 10 11 7 17 1 20 -8 4z"/>
<path d="M3860 2810 c0 -5 5 -10 10 -10 6 0 10 5 10 10 0 6 -4 10 -10 10 -5 0
-10 -4 -10 -10z"/>
<path d="M3910 2792 c0 -6 -7 -9 -15 -6 -9 4 -15 0 -15 -10 0 -9 7 -16 15 -16
17 0 32 27 21 37 -3 4 -6 1 -6 -5z"/>
<path d="M3665 2770 c3 -5 11 -10 16 -10 6 0 7 5 4 10 -3 6 -11 10 -16 10 -6
0 -7 -4 -4 -10z"/>
<path d="M3628 2753 c7 -3 16 -2 19 1 4 3 -2 6 -13 5 -11 0 -14 -3 -6 -6z"/>
<path d="M3930 2690 c0 -5 5 -10 11 -10 5 0 7 5 4 10 -3 6 -8 10 -11 10 -2 0
-4 -4 -4 -10z"/>
<path d="M3710 2686 c0 -2 7 -9 15 -16 13 -11 14 -10 9 4 -5 14 -24 23 -24 12z"/>
<path d="M3925 2650 c3 -5 11 -10 16 -10 6 0 7 5 4 10 -3 6 -11 10 -16 10 -6
0 -7 -4 -4 -10z"/>
<path d="M3705 2470 c-3 -5 -2 -10 4 -10 5 0 13 5 16 10 3 6 2 10 -4 10 -5 0
-13 -4 -16 -10z"/>
<path d="M140 2040 c0 -5 5 -10 10 -10 6 0 10 5 10 10 0 6 -4 10 -10 10 -5 0
-10 -4 -10 -10z"/>
<path d="M3240 1973 c0 -4 5 -15 10 -23 8 -13 10 -13 10 2 0 9 -4 20 -10 23
-5 3 -10 3 -10 -2z"/>
<path d="M3243 1899 c-2 -23 3 -25 10 -4 4 8 3 16 -1 19 -4 3 -9 -4 -9 -15z"/>
<path d="M55 1850 c-3 -5 -1 -10 4 -10 6 0 11 5 11 10 0 6 -2 10 -4 10 -3 0
-8 -4 -11 -10z"/>
<path d="M3745 1820 c-3 -5 -1 -10 4 -10 6 0 11 5 11 10 0 6 -2 10 -4 10 -3 0
-8 -4 -11 -10z"/>
<path d="M3265 1740 c3 -5 12 -7 20 -3 21 7 19 13 -6 13 -11 0 -18 -4 -14 -10z"/>
<path d="M3415 1430 c3 -5 8 -10 11 -10 2 0 4 5 4 10 0 6 -5 10 -11 10 -5 0
-7 -4 -4 -10z"/>
<path d="M3355 1361 c-3 -5 -2 -12 3 -15 5 -3 9 1 9 9 0 17 -3 19 -12 6z"/>
<path d="M3079 1263 c0 -5 -2 -18 -3 -30 -2 -12 2 -19 7 -16 6 4 8 -3 4 -16
-5 -22 -5 -22 13 -6 14 13 19 13 23 3 3 -7 4 -2 3 12 -2 17 -9 25 -22 25 -12
0 -18 6 -16 18 2 9 0 17 -3 17 -3 0 -5 -3 -6 -7z"/>
<path d="M3248 1193 c6 -2 18 -2 25 0 6 3 1 5 -13 5 -14 0 -19 -2 -12 -5z"/>
<path d="M3365 1175 c-3 -8 -7 -22 -10 -31 -3 -9 0 -14 7 -12 15 5 30 58 17
58 -5 0 -12 -7 -14 -15z"/>
<path d="M3110 1176 c0 -2 8 -10 18 -17 15 -13 16 -12 3 4 -13 16 -21 21 -21
13z"/>
<path d="M3040 1149 c0 -5 5 -9 10 -9 6 0 10 -7 10 -16 0 -8 5 -12 11 -9 15
10 6 38 -13 41 -10 1 -18 -2 -18 -7z"/>
<path d="M3166 1112 c-3 -4 4 -9 15 -9 23 -2 25 3 4 10 -8 4 -16 3 -19 -1z"/>
<path d="M3029 1080 c-11 -6 -15 -18 -11 -35 5 -27 18 -42 19 -22 0 7 3 24 6
40 3 15 5 27 4 27 -1 0 -9 -5 -18 -10z"/>
<path d="M3297 1063 c-13 -48 -17 -77 -8 -63 5 8 11 24 13 35 1 11 7 23 12 26
4 4 3 9 -2 13 -6 3 -13 -2 -15 -11z"/>
<path d="M3191 1054 c0 -11 3 -14 6 -6 3 7 2 16 -1 19 -3 4 -6 -2 -5 -13z"/>
<path d="M3631 1061 c-7 -5 -11 -15 -9 -22 3 -10 8 -7 17 9 13 24 12 26 -8 13z"/>
<path d="M0 1050 c0 -5 5 -10 11 -10 8 0 7 -6 -2 -17 -13 -16 -12 -17 4 -4 13
10 15 17 6 27 -14 17 -19 18 -19 4z"/>
<path d="M2808 1053 c7 -3 16 -2 19 1 4 3 -2 6 -13 5 -11 0 -14 -3 -6 -6z"/>
<path d="M2835 1039 c-10 -14 -1 -21 19 -13 9 3 13 10 10 15 -7 12 -21 11 -29
-2z"/>
<path d="M3070 1025 c0 -15 4 -24 10 -20 6 3 10 12 10 20 0 8 -4 17 -10 20 -6
4 -10 -5 -10 -20z"/>
<path d="M3515 1040 c-3 -5 -2 -10 4 -10 5 0 13 5 16 10 3 6 2 10 -4 10 -5 0
-13 -4 -16 -10z"/>
<path d="M2790 996 c0 -2 7 -7 16 -10 8 -3 12 -2 9 4 -6 10 -25 14 -25 6z"/>
<path d="M3616 985 c-3 -8 -1 -15 4 -15 6 0 10 7 10 15 0 8 -2 15 -4 15 -2 0
-6 -7 -10 -15z"/>
<path d="M3823 993 c-16 -6 -17 -36 -2 -31 6 2 10 7 9 12 -1 5 4 13 12 17 14
9 1 11 -19 2z"/>
<path d="M2993 971 c0 -11 5 -17 9 -15 11 7 10 34 -1 34 -6 0 -9 -9 -8 -19z"/>
<path d="M3420 980 c-9 -6 -10 -10 -3 -10 6 0 15 5 18 10 8 12 4 12 -15 0z"/>
<path d="M3505 980 c-3 -5 -2 -10 4 -10 5 0 13 5 16 10 3 6 2 10 -4 10 -5 0
-13 -4 -16 -10z"/>
<path d="M2720 960 c-9 -6 -10 -10 -3 -10 6 0 15 5 18 10 8 12 4 12 -15 0z"/>
<path d="M3040 929 c0 -11 5 -17 10 -14 6 3 10 13 10 21 0 8 -4 14 -10 14 -5
0 -10 -9 -10 -21z"/>
<path d="M3280 935 c0 -8 5 -15 10 -15 6 0 10 7 10 15 0 8 -4 15 -10 15 -5 0
-10 -7 -10 -15z"/>
<path d="M2696 924 c-5 -14 -4 -15 9 -4 17 14 19 20 6 20 -5 0 -12 -7 -15 -16z"/>
<path d="M2738 923 c7 -3 16 -2 19 1 4 3 -2 6 -13 5 -11 0 -14 -3 -6 -6z"/>
<path d="M3375 920 c-3 -5 -2 -10 4 -10 5 0 13 5 16 10 3 6 2 10 -4 10 -5 0
-13 -4 -16 -10z"/>
<path d="M3480 920 c0 -5 4 -10 9 -10 6 0 13 5 16 10 3 6 -1 10 -9 10 -9 0
-16 -4 -16 -10z"/>
<path d="M3605 920 c-3 -5 -1 -10 4 -10 6 0 11 5 11 10 0 6 -2 10 -4 10 -3 0
-8 -4 -11 -10z"/>
<path d="M3715 910 c-3 -5 -1 -10 4 -10 6 0 11 5 11 10 0 6 -2 10 -4 10 -3 0
-8 -4 -11 -10z"/>
<path d="M3880 904 c0 -8 5 -12 10 -9 6 4 8 11 5 16 -9 14 -15 11 -15 -7z"/>
<path d="M3945 900 c3 -5 8 -10 11 -10 2 0 4 5 4 10 0 6 -5 10 -11 10 -5 0 -7
-4 -4 -10z"/>
<path d="M2956 885 c4 -8 10 -12 15 -9 11 6 2 24 -11 24 -5 0 -7 -7 -4 -15z"/>
<path d="M3303 873 c-3 -10 -8 -21 -9 -24 -6 -11 100 -5 108 6 14 19 8 23 -26
15 -26 -6 -36 -4 -40 6 -7 19 -25 17 -33 -3z"/>
<path d="M2791 853 c-10 -26 -10 -27 4 -9 8 11 15 23 15 28 0 15 -7 8 -19 -19z"/>
<path d="M3007 864 c-7 -8 3 -34 13 -34 5 0 8 9 7 20 -1 20 -8 25 -20 14z"/>
<path d="M3420 854 c0 -8 6 -11 15 -8 8 4 15 9 15 13 0 4 -7 8 -15 8 -8 0 -15
-6 -15 -13z"/>
<path d="M2920 795 c0 -8 5 -15 10 -15 6 0 10 7 10 15 0 8 -4 15 -10 15 -5 0
-10 -7 -10 -15z"/>
<path d="M3283 690 c-13 -123 -31 -176 -34 -100 l-2 45 -6 -40 c-8 -47 -40
-97 -58 -90 -7 2 -12 1 -12 -3 3 -18 -2 -35 -8 -29 -3 4 -12 -1 -20 -11 -13
-15 -13 -15 -4 4 6 12 7 24 4 28 -3 3 0 6 7 6 7 0 11 3 8 6 -4 3 -21 -2 -39
-12 -23 -11 -34 -13 -37 -5 -5 15 -42 14 -42 -1 -1 -9 -5 -8 -13 3 -17 22 -77
42 -77 26 -1 -7 -5 -6 -13 4 -16 20 -47 33 -75 30 -13 -2 -30 3 -38 9 -11 10
-14 9 -14 -8 0 -12 10 -27 23 -33 12 -7 24 -15 27 -19 3 -4 37 -22 75 -41 39
-18 72 -36 75 -39 8 -10 95 -50 108 -50 7 0 12 -5 12 -11 0 -5 5 -7 10 -4 6 3
10 1 10 -4 0 -6 9 -11 20 -11 11 0 20 -4 20 -10 0 -5 5 -10 12 -10 19 0 47
-31 41 -46 -3 -9 1 -14 11 -14 14 0 15 4 6 21 -7 11 -10 23 -7 25 7 8 57 -37
57 -52 0 -8 3 -13 8 -13 21 4 32 -3 33 -18 0 -15 2 -15 8 2 8 18 10 17 27 -13
34 -60 40 -67 49 -52 6 9 4 11 -5 5 -8 -5 -11 -3 -8 6 3 8 -1 20 -9 27 -7 8
-11 18 -8 23 4 5 1 9 -4 9 -6 0 -11 4 -11 10 0 6 9 6 23 1 12 -5 27 -9 32 -10
33 -6 55 -14 55 -22 0 -5 7 -9 16 -9 24 0 -32 43 -96 73 -30 15 -48 27 -40 27
12 1 11 3 -3 11 -11 7 -15 17 -12 32 5 18 0 25 -22 33 -26 10 -25 10 14 8 24
-1 46 2 49 8 4 7 2 8 -4 4 -7 -4 -12 -1 -12 6 0 10 -2 10 -9 -1 -5 -7 -14 -10
-20 -7 -6 4 -9 12 -6 17 4 5 0 15 -8 23 -10 10 -18 11 -33 3 -17 -9 -18 -9 -5
6 9 12 10 17 2 17 -7 0 -9 5 -6 10 4 6 12 7 18 3 7 -3 3 3 -7 15 -11 12 -16
22 -11 22 4 0 2 7 -6 16 -8 9 -9 18 -3 22 9 6 11 28 5 42 -8 17 -8 40 0 40 5
0 8 19 8 43 -1 80 1 96 11 102 13 8 3 25 -13 25 -9 0 -17 -36 -24 -110z m-389
-161 c-3 -5 -10 -7 -15 -3 -5 3 -7 10 -3 15 3 5 10 7 15 3 5 -3 7 -10 3 -15z
m236 -49 c0 -5 -5 -10 -11 -10 -5 0 -7 5 -4 10 3 6 8 10 11 10 2 0 4 -4 4 -10z"/>
<path d="M2833 772 c-3 -12 -10 -22 -16 -22 -6 0 -7 -3 -4 -6 3 -4 2 -16 -4
-27 -8 -15 -8 -18 1 -12 15 9 43 75 35 83 -3 3 -8 -4 -12 -16z"/>
<path d="M2970 768 c0 -16 5 -28 10 -28 13 0 13 20 0 40 -8 12 -10 9 -10 -12z"/>
<path d="M3375 760 c3 -5 12 -7 20 -3 21 7 19 13 -6 13 -11 0 -18 -4 -14 -10z"/>
<path d="M3357 710 c6 -21 18 -26 28 -11 3 6 -3 15 -14 20 -16 9 -18 8 -14 -9z"/>
<path d="M2926 685 c-8 -22 3 -40 16 -27 7 7 7 16 1 27 -9 16 -10 16 -17 0z"/>
<path d="M3348 638 c2 -10 9 -17 15 -15 19 6 18 24 -1 29 -15 4 -18 1 -14 -14z"/>
<path d="M3980 600 c0 -5 5 -10 11 -10 5 0 7 5 4 10 -3 6 -8 10 -11 10 -2 0
-4 -4 -4 -10z"/>
<path d="M2876 585 c4 -8 10 -15 15 -15 5 0 9 7 9 15 0 8 -7 15 -15 15 -9 0
-12 -6 -9 -15z"/>
<path d="M3339 571 c6 -10 7 -21 4 -25 -3 -3 -2 -6 4 -6 17 0 25 32 11 42 -22
13 -29 9 -19 -11z"/>
<path d="M3974 558 c-5 -7 -14 -40 -20 -73 -18 -86 -34 -146 -49 -180 -7 -16
-18 -46 -23 -65 -6 -19 -18 -53 -26 -75 -19 -49 -20 -86 -3 -83 6 2 16 8 20
13 6 6 10 6 14 -2 2 -7 11 -13 19 -13 9 0 13 -3 11 -7 -3 -5 15 -8 39 -9 l44
-1 0 42 c0 33 -5 44 -22 54 l-23 11 23 -6 22 -5 0 205 c0 192 -5 228 -26 194z
m-24 -358 c0 -5 -7 -7 -15 -4 -8 4 -15 8 -15 10 0 2 7 4 15 4 8 0 15 -4 15
-10z m-23 -106 c-3 -3 -12 -4 -19 -1 -8 3 -5 6 6 6 11 1 17 -2 13 -5z"/>
<path d="M3330 506 c0 -27 12 -45 26 -39 18 7 18 21 0 39 -18 18 -26 18 -26 0z"/>
<path d="M2770 481 c0 -6 9 -9 19 -8 11 0 17 5 15 9 -7 11 -34 10 -34 -1z"/>
<path d="M2840 430 c0 -5 5 -10 10 -10 6 0 10 5 10 10 0 6 -4 10 -10 10 -5 0
-10 -4 -10 -10z"/>
<path d="M2920 391 c0 -6 9 -9 19 -8 11 0 17 5 15 9 -7 11 -34 10 -34 -1z"/>
<path d="M2936 355 c-9 -26 -7 -32 5 -12 6 10 9 21 6 23 -2 3 -7 -2 -11 -11z"/>
<path d="M3010 360 c-8 -5 -11 -12 -7 -17 5 -4 12 -1 16 6 7 11 10 11 14 0 3
-9 6 -10 6 -2 1 17 -13 23 -29 13z"/>
<path d="M3376 342 c-12 -12 -5 -19 17 -18 25 2 58 -11 69 -28 6 -8 8 -8 8 0
0 6 -6 17 -14 23 -18 15 -73 31 -80 23z"/>
<path d="M3080 321 c0 -6 9 -9 20 -8 11 1 20 5 20 9 0 4 -9 8 -20 8 -11 0 -20
-4 -20 -9z"/>
<path d="M3160 291 c0 -5 8 -11 18 -13 11 -3 19 0 19 8 0 8 -9 14 -19 14 -10
0 -18 -4 -18 -9z"/>
<path d="M3096 245 c4 -8 8 -15 10 -15 2 0 4 7 4 15 0 8 -4 15 -10 15 -5 0 -7
-7 -4 -15z"/>
<path d="M3187 245 c-4 -8 -3 -16 1 -19 4 -3 9 4 9 15 2 23 -3 25 -10 4z"/>
<path d="M3811 33 c-6 -13 -11 -26 -11 -28 0 -3 45 -5 100 -5 55 0 100 4 100
9 0 12 -19 18 -108 35 l-70 13 -11 -24z"/>
<path d="M25 40 c-3 -5 -1 -10 4 -10 6 0 11 5 11 10 0 6 -2 10 -4 10 -3 0 -8
-4 -11 -10z"/>
</g>
</svg>
